<?xml version="1.0" standalone="no"?>
<!DOCTYPE svg PUBLIC "-//W3C//DTD SVG 20010904//EN"
 "http://www.w3.org/TR/2001/REC-SVG-20010904/DTD/svg10.dtd">
<svg version="1.0" xmlns="http://www.w3.org/2000/svg"
 width="297.000000pt" height="252.000000pt" viewBox="0 0 297.000000 252.000000"
 preserveAspectRatio="xMidYMid meet">

<g transform="translate(0.000000,252.000000) scale(0.100000,-0.100000)"
fill="#000000" stroke="none">
<path d="M965 2116 c-36 -16 -72 -54 -77 -81 -5 -30 23 -25 58 12 26 27 39 33
74 33 34 0 48 -6 75 -32 59 -59 91 -40 38 23 -46 54 -109 71 -168 45z"/>
<path d="M952 1730 c-40 -11 -90 -29 -110 -40 -40 -22 -82 -75 -82 -103 0 -9
-8 -21 -19 -26 -27 -15 -51 -72 -51 -123 0 -65 44 -127 118 -166 31 -16 143
-60 247 -96 419 -147 571 -257 552 -400 -5 -34 -15 -50 -64 -94 -118 -107
-239 -138 -347 -89 -67 31 -145 101 -198 179 -38 57 -106 190 -126 247 -8 23
-15 28 -31 24 -12 -3 -21 -10 -21 -17 0 -6 20 -54 43 -107 79 -175 190 -310
300 -365 65 -33 159 -42 223 -20 26 9 49 14 52 12 6 -7 -76 -56 -120 -72 -167
-59 -340 62 -467 326 -22 44 -44 93 -49 109 -8 23 -15 28 -31 24 -12 -3 -21
-10 -21 -17 0 -6 20 -54 43 -107 82 -180 194 -315 307 -368 44 -20 70 -26 130
-26 67 0 84 4 151 37 85 42 191 141 245 229 82 133 93 155 99 199 11 77 -10
126 -85 201 -55 56 -85 76 -190 127 -69 33 -206 88 -305 123 -224 77 -286 108
-314 152 -32 53 -28 64 32 82 150 45 334 34 449 -26 13 -7 20 -4 28 12 7 11 9
23 6 26 -2 3 -35 16 -73 30 -95 36 -275 43 -380 15 -79 -20 -92 -14 -40 18
117 73 343 84 490 25 57 -23 58 -23 68 -3 13 25 13 25 -68 56 -95 35 -283 41
-391 12z m3 -386 c50 -18 151 -54 225 -79 362 -123 529 -255 492 -390 l-9 -30
-18 35 c-61 119 -198 207 -470 304 -205 73 -339 127 -357 144 -20 17 -8 42 21
42 14 0 14 2 1 11 -18 13 -16 12 115 -37z"/>
<path d="M1921 480 c-1 -28 3 -50 9 -50 5 0 10 23 10 50 0 28 -4 50 -8 50 -5
0 -10 -22 -11 -50z"/>
<path d="M1523 513 c-19 -7 -16 -34 5 -49 16 -13 16 -14 -2 -7 -13 4 -17 2
-14 -8 2 -8 14 -15 26 -17 29 -4 41 26 18 44 -16 12 -16 12 1 16 17 4 17 5 -2
15 -11 5 -26 8 -32 6z"/>
<path d="M1580 500 c0 -5 5 -10 10 -10 6 0 10 -13 10 -30 0 -16 5 -30 10 -30
6 0 10 13 10 30 0 17 7 33 18 39 14 8 10 10 -20 11 -21 0 -38 -4 -38 -10z"/>
<path d="M1660 475 c0 -63 62 -59 68 4 2 23 -1 31 -12 31 -11 0 -16 -10 -16
-31 0 -17 -4 -28 -10 -24 -5 3 -10 17 -10 31 0 13 -4 24 -10 24 -5 0 -10 -16
-10 -35z"/>
<path d="M1740 470 c0 -40 1 -41 31 -38 18 2 37 11 43 21 16 25 -4 51 -43 55
-30 3 -31 2 -31 -38z m54 11 c3 -5 -1 -14 -9 -21 -13 -10 -15 -9 -15 9 0 21
14 28 24 12z"/>
<path d="M1848 470 c9 -22 19 -40 22 -40 3 0 13 18 22 40 17 41 7 55 -20 28
-9 -9 -12 -9 -12 0 0 7 -6 12 -14 12 -12 0 -12 -7 2 -40z"/>
<path d="M1958 498 c-8 -22 7 -63 23 -66 12 -2 16 6 14 35 -1 38 -27 60 -37
31z"/>
<path d="M2010 470 c0 -36 3 -40 25 -40 14 0 25 5 25 10 0 6 -7 10 -15 10 -10
0 -15 10 -15 30 0 17 -4 30 -10 30 -5 0 -10 -18 -10 -40z"/>
<path d="M2070 470 c0 -43 17 -55 24 -17 8 36 4 57 -11 57 -9 0 -13 -13 -13
-40z"/>
<path d="M2110 501 c0 -4 5 -22 11 -40 13 -38 44 -42 53 -7 3 13 9 31 12 40 4
11 1 16 -10 16 -9 0 -16 -8 -16 -19 0 -30 -17 -34 -24 -6 -6 23 -26 36 -26 16z"/>
<path d="M2200 470 c0 -36 3 -40 25 -40 14 0 25 5 25 10 0 6 -6 10 -12 10 -9
0 -8 4 2 10 13 8 13 11 1 19 -11 7 -10 11 5 20 17 9 15 10 -13 11 -32 0 -33
-1 -33 -40z"/>
</g>
</svg>
